<svg width="268" height="95" viewBox="0 0 268 95" fill="none" xmlns="http://www.w3.org/2000/svg">
<path d="M89.034 11.1C90.9007 11.3667 92.1673 11.9333 92.834 12.8C93.5673 13.6667 93.934 14.8 93.934 16.2C93.934 20.8 91.4673 22.9333 86.534 22.6L83.034 22.3C79.1007 21.9667 75.1673 21.7 71.234 21.5C67.3673 21.3 63.3007 21.2 59.034 21.2H54.534C53.734 31.0667 52.9007 40.0667 52.034 48.2L69.234 47.9C71.7007 47.9 73.334 48.3333 74.134 49.2C75.0007 50.0667 75.434 51.2333 75.434 52.7C75.434 54.9667 74.7673 56.7667 73.434 58.1C72.1007 59.3667 70.2007 60 67.734 60H50.634L50.034 64.3C48.634 75.3 45.634 83.1333 41.034 87.8C36.5007 92.4667 30.234 94.8 22.234 94.8C17.7007 94.8 13.534 93.8333 9.73398 91.9C5.93398 89.9 3.13398 87.5 1.33398 84.7C0.600651 83.5667 0.233984 82.2 0.233984 80.6C0.233984 79 0.600651 77.6 1.33398 76.4C2.13398 75.2 3.10065 74.6 4.23398 74.6C5.03398 74.6 5.80065 74.8667 6.53398 75.4C7.33398 75.9333 8.33398 76.9667 9.53399 78.5C12.734 82.7 16.7007 84.8 21.434 84.8C25.234 84.8 28.4007 83.2667 30.934 80.2C33.534 77.0667 35.2007 72.1667 35.934 65.5L36.534 60H31.734C30.2007 60 28.8673 59.5667 27.734 58.7C26.6673 57.8333 26.134 56.6 26.134 55C26.134 52.9333 26.6673 51.3667 27.734 50.3C28.8007 49.1667 30.3673 48.6 32.434 48.6C34.3007 48.6 36.134 48.5667 37.934 48.5C38.734 41.1667 39.6007 32.2667 40.534 21.8C33.334 22.4667 28.2673 23.6333 25.334 25.3C22.4007 26.9667 20.934 29.4333 20.934 32.7C20.934 34.9667 21.6007 37.1333 22.934 39.2C23.334 39.8 23.534 40.4 23.534 41C23.534 42.2 22.8673 43.2667 21.534 44.2C20.2007 45.0667 18.7007 45.5 17.034 45.5C15.234 45.5 13.7007 44.9667 12.434 43.9C11.634 43.2333 10.8673 41.8667 10.134 39.8C9.40065 37.7333 9.03398 35.4333 9.03398 32.9C9.03398 24.6333 13.2673 18.6333 21.734 14.9C30.2673 11.1667 42.7007 9.29999 59.034 9.29999C70.3673 9.29999 80.3673 9.89999 89.034 11.1ZM114.225 71.7C115.092 71.7 115.759 72.1 116.225 72.9C116.759 73.7 117.025 74.8 117.025 76.2C117.025 78.8667 116.392 80.9333 115.125 82.4C112.259 85.9333 109.125 88.8333 105.725 91.1C102.392 93.3667 98.5921 94.5 94.3254 94.5C88.4587 94.5 84.0921 91.8333 81.2254 86.5C78.4254 81.1667 77.0254 74.2667 77.0254 65.8C77.0254 57.6667 78.0587 48.4 80.1254 38C82.2587 27.6 85.3587 18.6667 89.4254 11.2C93.5587 3.73333 98.4587 -5.72205e-06 104.125 -5.72205e-06C107.325 -5.72205e-06 109.825 1.49999 111.625 4.5C113.492 7.43333 114.425 11.6667 114.425 17.2C114.425 25.1333 112.225 34.3333 107.825 44.8C103.425 55.2667 97.4587 65.6333 89.9254 75.9C90.3921 78.6333 91.1587 80.6 92.2254 81.8C93.2921 82.9333 94.6921 83.5 96.4254 83.5C99.1587 83.5 101.559 82.7333 103.625 81.2C105.692 79.6 108.325 76.9 111.525 73.1C112.325 72.1667 113.225 71.7 114.225 71.7ZM101.925 9.9C100.392 9.9 98.6587 12.6667 96.7254 18.2C94.7921 23.7333 93.0921 30.6 91.6254 38.8C90.1587 47 89.3587 54.8667 89.2254 62.4C93.9587 54.6 97.7254 46.8 100.525 39C103.325 31.1333 104.725 23.9667 104.725 17.5C104.725 12.4333 103.792 9.9 101.925 9.9ZM120.266 94.5C116.133 94.5 112.833 93 110.366 90C107.899 87 106.666 83.0667 106.666 78.2C106.666 72.8667 107.899 67.8333 110.366 63.1C112.833 58.3 116.099 54.4667 120.166 51.6C124.299 48.6667 128.666 47.2 133.266 47.2C134.733 47.2 135.699 47.5 136.166 48.1C136.699 48.6333 137.133 49.6333 137.466 51.1C138.866 50.8333 140.333 50.7 141.866 50.7C145.133 50.7 146.766 51.8667 146.766 54.2C146.766 55.6 146.266 58.9333 145.266 64.2C143.733 71.8667 142.966 77.2 142.966 80.2C142.966 81.2 143.199 82 143.666 82.6C144.199 83.2 144.866 83.5 145.666 83.5C146.933 83.5 148.466 82.7 150.266 81.1C152.066 79.4333 154.499 76.7667 157.566 73.1C158.366 72.1667 159.266 71.7 160.266 71.7C161.133 71.7 161.799 72.1 162.266 72.9C162.799 73.7 163.066 74.8 163.066 76.2C163.066 78.8667 162.433 80.9333 161.166 82.4C158.433 85.8 155.533 88.6667 152.466 91C149.399 93.3333 146.433 94.5 143.566 94.5C141.366 94.5 139.333 93.7667 137.466 92.3C135.666 90.7667 134.299 88.7 133.366 86.1C129.899 91.7 125.533 94.5 120.266 94.5ZM123.866 84.4C125.333 84.4 126.733 83.5333 128.066 81.8C129.399 80.0667 130.366 77.7667 130.966 74.9L134.666 56.5C131.866 56.5667 129.266 57.6333 126.866 59.7C124.533 61.7 122.666 64.3667 121.266 67.7C119.866 71.0333 119.166 74.5667 119.166 78.3C119.166 80.3667 119.566 81.9 120.366 82.9C121.233 83.9 122.399 84.4 123.866 84.4ZM162.039 94.5C159.505 94.5 157.705 93.1667 156.639 90.5C155.639 87.8333 155.139 83.5667 155.139 77.7C155.139 69.0333 156.372 60.8 158.839 53C159.439 51.0667 160.405 49.6667 161.739 48.8C163.139 47.8667 165.072 47.4 167.539 47.4C168.872 47.4 169.805 47.5667 170.339 47.9C170.872 48.2333 171.139 48.8667 171.139 49.8C171.139 50.8667 170.639 53.2667 169.639 57C168.972 59.6667 168.439 62 168.039 64C167.639 65.9333 167.305 68.3667 167.039 71.3C168.839 66.1 170.972 61.7 173.439 58.1C175.972 54.5 178.539 51.8333 181.139 50.1C183.805 48.3 186.305 47.4 188.639 47.4C190.972 47.4 192.605 47.9333 193.539 49C194.539 50.0667 195.039 51.7 195.039 53.9C195.039 56.0333 194.405 59.9 193.139 65.5C192.605 67.9 192.239 69.7 192.039 70.9C195.372 62.7 199.072 56.7333 203.139 53C207.205 49.2667 211.005 47.4 214.539 47.4C218.872 47.4 221.039 49.5667 221.039 53.9C221.039 56.5 220.305 61.2 218.839 68C217.572 73.8 216.939 77.6333 216.939 79.5C216.939 82.1667 217.905 83.5 219.839 83.5C221.172 83.5 222.739 82.7 224.539 81.1C226.405 79.4333 228.872 76.7667 231.939 73.1C232.739 72.1667 233.639 71.7 234.639 71.7C235.505 71.7 236.172 72.1 236.639 72.9C237.172 73.7 237.439 74.8 237.439 76.2C237.439 78.8667 236.805 80.9333 235.539 82.4C232.672 85.9333 229.572 88.8333 226.239 91.1C222.972 93.3667 219.239 94.5 215.039 94.5C211.639 94.5 209.072 93.5333 207.339 91.6C205.605 89.6 204.739 86.7333 204.739 83C204.739 81.1333 205.205 77.8 206.139 73C207.005 68.8 207.439 65.9 207.439 64.3C207.439 63.2333 207.072 62.7 206.339 62.7C205.472 62.7 204.239 63.8333 202.639 66.1C201.039 68.3 199.439 71.2333 197.839 74.9C196.239 78.5667 194.939 82.4333 193.939 86.5C193.205 89.7 192.339 91.8333 191.339 92.9C190.405 93.9667 188.872 94.5 186.739 94.5C184.539 94.5 182.872 93.4667 181.739 91.4C180.672 89.2667 180.139 86.7 180.139 83.7C180.139 81.1667 180.472 77.5 181.139 72.7C181.672 68.4333 181.939 65.6333 181.939 64.3C181.939 63.2333 181.572 62.7 180.839 62.7C179.839 62.7 178.572 63.9 177.039 66.3C175.505 68.7 174.005 71.7667 172.539 75.5C171.139 79.2333 170.005 82.9 169.139 86.5C168.405 89.6333 167.539 91.7667 166.539 92.9C165.605 93.9667 164.105 94.5 162.039 94.5ZM265.153 74.7C266.019 74.7 266.686 75.1 267.153 75.9C267.686 76.7 267.953 77.8 267.953 79.2C267.953 81.6 267.386 83.6667 266.253 85.4C264.386 88.2667 261.919 90.5 258.853 92.1C255.853 93.7 252.253 94.5 248.053 94.5C241.653 94.5 236.686 92.6 233.153 88.8C229.619 84.9333 227.853 79.7333 227.853 73.2C227.853 68.6 228.819 64.3333 230.753 60.4C232.686 56.4 235.353 53.2333 238.753 50.9C242.219 48.5667 246.119 47.4 250.453 47.4C254.319 47.4 257.419 48.5667 259.753 50.9C262.086 53.1667 263.253 56.2667 263.253 60.2C263.253 64.8 261.586 68.7667 258.253 72.1C254.986 75.3667 249.386 77.9667 241.453 79.9C243.053 82.9667 245.753 84.5 249.553 84.5C252.286 84.5 254.519 83.8667 256.253 82.6C258.053 81.3333 260.119 79.2 262.453 76.2C263.253 75.2 264.153 74.7 265.153 74.7ZM248.753 57.2C246.286 57.2 244.186 58.6333 242.453 61.5C240.786 64.3667 239.953 67.8333 239.953 71.9V72.1C243.886 71.1667 246.986 69.7667 249.253 67.9C251.519 66.0333 252.653 63.8667 252.653 61.4C252.653 60.1333 252.286 59.1333 251.553 58.4C250.886 57.6 249.953 57.2 248.753 57.2Z" fill="white"/>
</svg>
